<?xml version="1.0" encoding="UTF-8" standalone="no"?>
<!-- Created with Inkscape (http://www.inkscape.org/) -->

<svg
   width="210mm"
   height="297mm"
   viewBox="0 0 210 297"
   version="1.1"
   id="svg5"
   sodipodi:docname="SkeuoShapes.svg"
   inkscape:version="1.2-beta (1b65182ce9, 2022-04-05)"
   xmlns:inkscape="http://www.inkscape.org/namespaces/inkscape"
   xmlns:sodipodi="http://sodipodi.sourceforge.net/DTD/sodipodi-0.dtd"
   xmlns="http://www.w3.org/2000/svg"
   xmlns:svg="http://www.w3.org/2000/svg">
  <sodipodi:namedview
     id="namedview7"
     pagecolor="#ffffff"
     bordercolor="#666666"
     borderopacity="1.0"
     inkscape:pageshadow="2"
     inkscape:pageopacity="0.0"
     inkscape:pagecheckerboard="0"
     inkscape:deskcolor="#d1d1d1"
     inkscape:document-units="mm"
     showgrid="false"
     inkscape:zoom="16"
     inkscape:cx="12.6875"
     inkscape:cy="37.21875"
     inkscape:window-width="2560"
     inkscape:window-height="1017"
     inkscape:window-x="2552"
     inkscape:window-y="-8"
     inkscape:window-maximized="1"
     inkscape:current-layer="layer1"
     showguides="true">
    <sodipodi:guide
       position="47.45109,285.92569"
       orientation="0,-1"
       id="guide14163" />
  </sodipodi:namedview>
  <defs
     id="defs2" />
  <g
     inkscape:label="Layer 1"
     inkscape:groupmode="layer"
     id="layer1">
    <rect
       style="fill:#5c5c5c;fill-opacity:1;stroke:none;stroke-width:0.265;stop-color:#000000"
       id="rect184"
       width="10"
       height="10"
       x="7.1203442"
       y="5.8938751"
       rx="4"
       ry="4"
       inkscape:export-filename="SkeuoPlate.png"
       inkscape:export-xdpi="96"
       inkscape:export-ydpi="96" />
    <path
       id="rect4019"
       style="fill:#e5e5e5;fill-opacity:1;stroke:none;stroke-width:0.265;stop-color:#000000"
       d="m 11.120507,5.8942405 c -2.2159978,0 -3.999756,1.783758 -3.999756,3.9997558 v 0.9415447 c 0,2.215998 1.7837582,3.999756 3.999756,3.999756 h 1.999878 c 2.215998,0 3.999756,-1.783758 3.999756,-3.999756 V 9.8939963 c 0,-2.2159978 -1.783758,-3.9997558 -3.999756,-3.9997558 z"
       sodipodi:nodetypes="sssssssss" />
    <path
       id="rect5578"
       style="fill:#5c5c5c;fill-opacity:1;stroke:none;stroke-width:0.265;stop-color:#000000"
       d="m 30.287295,6.2529361 c -1.107998,0 -1.999878,0.891879 -1.999878,1.9998778 v 5.6409381 c 0,1.107999 0.89188,1.999878 1.999878,1.999878 h 5.999634 c 1.108,0 1.999878,-0.891879 1.999878,-1.999878 V 8.2528139 c 0,-1.1079988 -0.891878,-1.9998778 -1.999878,-1.9998778 z"
       sodipodi:nodetypes="sssssssss"
       inkscape:export-filename="SkeuoButton.png"
       inkscape:export-xdpi="96"
       inkscape:export-ydpi="96" />
    <path
       id="path5580"
       style="fill:#e5e5e5;fill-opacity:1;stroke:none;stroke-width:0.265;stop-color:#000000"
       d="m 30.287295,6.2012997 c -1.107998,0 -1.999878,0.891879 -1.999878,1.9998778 v 5.4990975 c 0,1.107999 0.89188,1.999878 1.999878,1.999878 h 5.999636 c 1.107998,0 1.999878,-0.891879 1.999878,-1.999878 V 8.2011775 c 0,-1.1079988 -0.89188,-1.9998778 -1.999878,-1.9998778 z"
       sodipodi:nodetypes="sssssssss" />
    <path
       id="path7154"
       style="fill:#898989;fill-opacity:1;stroke:none;stroke-width:0.265;stroke-opacity:1;stop-color:#000000"
       inkscape:transform-center-x="-0.57578683"
       d="M 48.282842,8.6426745 A 0.43659688,0.43659688 0 0 0 47.84557,9.0799461 v 3.9887419 a 0.43659688,0.43659688 0 0 0 0.437272,0.437272 0.43659688,0.43659688 0 0 0 0.245886,-0.07631 l 3.426709,-1.976808 a 0.43659688,0.43659688 0 0 0 0.218035,-0.37913 0.43659688,0.43659688 0 0 0 -0.218035,-0.377919 0.43659688,0.43659688 0 0 0 -0.01342,-0.0073 l -3.4254,-1.9767735 a 0.43659688,0.43659688 0 0 0 -0.01223,-0.00728 l -0.0036,-0.00242 a 0.43659688,0.43659688 0 0 0 -0.218035,-0.059354 z"
       inkscape:transform-center-y="-3.2391637e-06"
       inkscape:export-filename=".\SkeuoSub.png"
       inkscape:export-xdpi="96"
       inkscape:export-ydpi="96" />
    <rect
       style="fill:#5c5c5c;fill-opacity:1;stroke:none;stroke-width:0.265;stroke-opacity:1;stop-color:#000000"
       id="rect10087"
       width="2.5748425"
       height="2.5748425"
       x="32.995041"
       y="17.20303"
       rx="0.91516799"
       ry="0.91516799"
       inkscape:export-filename=".\SkeuoSeparator.png"
       inkscape:export-xdpi="96"
       inkscape:export-ydpi="96" />
    <path
       id="rect10089"
       style="fill:#e5e5e5;fill-opacity:1;stroke:none;stroke-width:0.265;stroke-opacity:1;stop-color:#000000"
       d="m 33.886037,17.203034 c -0.495963,0.01245 -0.890993,0.416504 -0.890993,0.915585 v 0.376607 c 0,0.507003 0.408586,0.915585 0.915585,0.915585 h 0.743442 c 0.507003,0 0.915586,-0.408582 0.915586,-0.915585 v -0.376607 c 0,-0.507003 -0.408583,-0.915585 -0.915586,-0.915585 h -0.743442 c -0.0081,0 -0.01684,-1.98e-4 -0.02453,0 z"
       sodipodi:nodetypes="ssssssssss" />
    <path
       id="path12680"
       style="fill:none;fill-opacity:1;stroke:#000000;stroke-width:0.1;stop-color:#000000;stroke-opacity:1;stroke-dasharray:none"
       d="m 30.28704,6.2011719 c -1.107997,0 -1.999878,0.8918802 -1.999878,1.9998779 v 0.051676 5.4477302 0.19327 c 0,1.107997 0.891881,1.999877 1.999878,1.999877 h 5.999634 c 1.107999,0 1.999878,-0.89188 1.999878,-1.999877 v -0.19327 -5.4477302 -0.051676 c 0,-1.1079977 -0.891881,-1.9998779 -1.999878,-1.9998779 z" />
    <path
       id="rect13412"
       style="fill:none;fill-opacity:1;stroke:#000000;stroke-width:0.1;stroke-opacity:1;stop-color:#000000;stroke-dasharray:none"
       d="M 33.885787 17.203084 C 33.878038 17.203279 33.870748 17.203733 33.863049 17.204118 C 33.824554 17.206041 33.786428 17.210015 33.749361 17.21652 C 33.748834 17.216613 33.748338 17.216943 33.747811 17.217037 C 33.725206 17.221045 33.703135 17.225878 33.681148 17.231506 C 33.674826 17.233125 33.668296 17.234925 33.662028 17.236674 C 33.661001 17.236961 33.659953 17.237418 33.658927 17.237708 C 33.652849 17.239427 33.646866 17.241034 33.640841 17.242875 C 33.639778 17.2432 33.638801 17.24358 33.63774 17.243909 C 33.631718 17.245773 33.625621 17.247609 33.619653 17.249593 C 33.618435 17.249998 33.617252 17.250733 33.616036 17.251143 C 33.610305 17.253077 33.604661 17.254785 33.598983 17.256828 C 33.597597 17.257326 33.596231 17.257874 33.594849 17.258378 C 33.573843 17.266051 33.55308 17.274565 33.532837 17.2837 C 33.52781 17.285968 33.522829 17.288061 33.517851 17.290417 C 33.516109 17.291241 33.514419 17.292167 33.512683 17.293001 C 33.506084 17.296177 33.499555 17.299492 33.493046 17.30282 C 33.488327 17.305233 33.483247 17.307562 33.478577 17.310055 C 33.476811 17.310996 33.475167 17.312202 33.473409 17.313155 C 33.466799 17.316738 33.460281 17.320267 33.453772 17.324007 C 33.441002 17.331345 33.428418 17.338816 33.416048 17.346745 C 33.412057 17.349303 33.408111 17.351878 33.404163 17.354496 C 33.392118 17.362484 33.380138 17.370765 33.368506 17.379301 C 33.366253 17.380952 33.364025 17.382798 33.361788 17.384469 C 33.358301 17.387078 33.3549 17.389562 33.351453 17.39222 C 33.349102 17.394029 33.347068 17.396073 33.344735 17.397904 C 33.341364 17.400555 33.337731 17.40296 33.334399 17.405656 C 33.332094 17.40752 33.329968 17.409454 33.327681 17.41134 C 33.324385 17.414061 33.32112 17.416843 33.317863 17.419609 C 33.315486 17.421624 33.312984 17.42377 33.310628 17.42581 C 33.307584 17.42845 33.304335 17.430882 33.301326 17.433561 C 33.298872 17.435743 33.296522 17.438071 33.294092 17.440279 C 33.291202 17.442909 33.288162 17.445365 33.285307 17.448031 C 33.282814 17.450354 33.280539 17.452914 33.278072 17.455265 C 33.275336 17.457878 33.272507 17.460371 33.269804 17.463017 C 33.267324 17.465441 33.265022 17.467799 33.262569 17.470251 C 33.259856 17.472967 33.25698 17.47577 33.254301 17.47852 C 33.251874 17.481009 33.249465 17.483755 33.247066 17.486271 C 33.244585 17.488878 33.242282 17.491386 33.239832 17.494023 C 33.237257 17.496787 33.23462 17.499495 33.23208 17.502291 C 33.229783 17.504825 33.227631 17.507483 33.225362 17.510042 C 33.222773 17.512957 33.220163 17.515879 33.217611 17.518827 C 33.212902 17.524277 33.208239 17.529802 33.203658 17.535364 C 33.201564 17.537907 33.199524 17.540549 33.197457 17.543115 C 33.194932 17.546246 33.19219 17.549253 33.189705 17.552417 C 33.187737 17.554927 33.185964 17.557637 33.184021 17.560168 C 33.181498 17.563452 33.178749 17.566668 33.17627 17.569987 C 33.174478 17.572389 33.17287 17.574801 33.171102 17.577222 C 33.167803 17.58173 33.164501 17.586087 33.161283 17.590658 C 33.158649 17.594404 33.156111 17.598238 33.153532 17.602026 C 33.151433 17.605105 33.149393 17.608222 33.147331 17.611328 C 33.146987 17.611847 33.14664 17.612359 33.146297 17.612878 C 33.143826 17.616617 33.14148 17.62047 33.139062 17.624247 C 33.137592 17.626548 33.135862 17.628651 33.134412 17.630965 C 33.13195 17.634888 33.12958 17.638888 33.127177 17.642851 C 33.124791 17.64679 33.12227 17.650759 33.119942 17.654736 C 33.118549 17.657115 33.117181 17.659579 33.115808 17.661971 C 33.114557 17.664154 33.113424 17.666495 33.112191 17.668689 C 33.102606 17.685726 33.093305 17.703184 33.084802 17.720882 C 33.083907 17.72275 33.083102 17.724692 33.082218 17.726567 C 33.079713 17.731875 33.07739 17.737222 33.074984 17.742586 C 33.073757 17.745324 33.072567 17.748103 33.071366 17.750854 C 33.069836 17.754361 33.068204 17.75766 33.066715 17.76119 C 33.065927 17.763061 33.065425 17.764997 33.064648 17.766874 C 33.06223 17.77272 33.059714 17.778537 33.057414 17.784444 C 33.05668 17.786329 33.056068 17.788238 33.055347 17.790129 C 33.053719 17.794389 33.051745 17.798756 33.050179 17.803048 C 33.049621 17.804581 33.049179 17.806161 33.048629 17.807699 C 33.046473 17.813708 33.044461 17.819717 33.042428 17.825785 C 33.042086 17.826806 33.041732 17.827864 33.041394 17.828886 C 33.039559 17.83443 33.037958 17.839831 33.036226 17.845422 C 33.035046 17.849228 33.033741 17.852964 33.032609 17.856791 C 33.031597 17.860217 33.030482 17.863684 33.029508 17.867126 C 33.029119 17.868503 33.028858 17.869881 33.028475 17.871261 C 33.026841 17.877144 33.025343 17.8829 33.023824 17.888831 C 33.023473 17.890199 33.023136 17.891593 33.022791 17.892965 C 33.020995 17.900115 33.01925 17.907452 33.017623 17.914669 C 33.016222 17.920883 33.014764 17.92701 33.013489 17.933272 C 33.013277 17.934311 33.01318 17.935332 33.012972 17.936373 C 33.011681 17.942826 33.01051 17.949507 33.009355 17.95601 C 33.009201 17.956874 33.008989 17.957729 33.008838 17.958594 C 33.007676 17.965246 33.006756 17.971529 33.005737 17.978231 C 33.005293 17.981151 33.004604 17.984087 33.004187 17.987016 C 33.003514 17.991744 33.00272 17.996734 33.00212 18.001485 C 33.002035 18.002157 33.002204 18.002879 33.00212 18.003552 C 33.001255 18.010522 33.000245 18.017205 32.999536 18.024223 C 32.999467 18.024904 32.999604 18.025608 32.999536 18.02629 C 32.998842 18.033325 32.998005 18.040396 32.997469 18.047477 C 32.99743 18.047994 32.997508 18.04851 32.997469 18.049028 C 32.996933 18.056281 32.996803 18.063431 32.996436 18.070732 C 32.996409 18.071244 32.996461 18.07177 32.996436 18.072282 C 32.996079 18.079597 32.995587 18.087143 32.995402 18.094503 C 32.995393 18.094846 32.995411 18.095193 32.995402 18.095536 C 32.995221 18.103069 32.994885 18.110696 32.994885 18.118274 L 32.994885 18.118791 L 32.994885 18.494995 L 32.994885 18.862931 C 32.994885 19.369934 33.403072 19.778121 33.910075 19.778121 L 34.654732 19.778121 C 35.161735 19.778121 35.569922 19.369934 35.569922 18.862931 L 35.569922 18.118274 C 35.569922 18.110524 35.569595 18.102722 35.569405 18.09502 C 35.569401 18.094849 35.56941 18.094674 35.569405 18.094503 C 35.568216 18.047268 35.563476 18.001168 35.555452 17.95601 C 35.554084 17.948316 35.552876 17.940897 35.551318 17.933272 C 35.548314 17.918515 35.544685 17.903833 35.540983 17.889347 C 35.540942 17.889186 35.541024 17.888992 35.540983 17.888831 C 35.535358 17.866867 35.529037 17.84552 35.521863 17.824235 C 35.51713 17.810195 35.511743 17.796099 35.50636 17.782377 C 35.503577 17.775298 35.501044 17.76818 35.498092 17.76119 C 35.480829 17.720241 35.460417 17.680988 35.43763 17.643368 C 35.437555 17.643243 35.437706 17.642975 35.43763 17.642851 C 35.430077 17.630394 35.421982 17.618215 35.413859 17.60616 C 35.413781 17.606045 35.413937 17.605759 35.413859 17.605644 C 35.381099 17.557073 35.343489 17.512053 35.302238 17.470768 C 35.296985 17.465511 35.292115 17.460394 35.286735 17.455265 C 35.286644 17.455179 35.286309 17.455352 35.286218 17.455265 C 35.281014 17.450305 35.276036 17.445117 35.270715 17.440279 C 35.27062 17.440192 35.270294 17.440366 35.270199 17.440279 C 35.264879 17.435446 35.259612 17.430518 35.254179 17.42581 C 35.254081 17.425725 35.25376 17.425894 35.253662 17.42581 C 35.242696 17.416324 35.232005 17.406866 35.220589 17.397904 C 35.220482 17.397821 35.220179 17.397988 35.220072 17.397904 C 35.214418 17.393464 35.208781 17.388777 35.203019 17.384469 C 35.202908 17.384386 35.202614 17.384551 35.202502 17.384469 C 35.19087 17.375778 35.178899 17.367287 35.166846 17.359147 C 35.166727 17.359067 35.166447 17.359227 35.166329 17.359147 C 35.16036 17.35512 35.154827 17.350633 35.148759 17.346745 C 35.148634 17.346665 35.148367 17.346825 35.148242 17.346745 C 35.142177 17.342862 35.136318 17.339118 35.130155 17.335376 C 35.13003 17.3353 35.129764 17.335452 35.129639 17.335376 C 35.123472 17.331636 35.117297 17.327605 35.111035 17.324007 C 35.110906 17.323933 35.110647 17.324081 35.110518 17.324007 C 35.104256 17.320413 35.097753 17.316604 35.091398 17.313155 C 35.091262 17.313082 35.091017 17.313229 35.090881 17.313155 C 35.078044 17.306207 35.065326 17.299344 35.052124 17.293001 C 35.051983 17.292934 35.051748 17.293069 35.051607 17.293001 C 35.045075 17.289861 35.038588 17.286688 35.03197 17.2837 C 35.031825 17.283634 35.031599 17.283765 35.031453 17.2837 C 35.011312 17.274634 34.990852 17.266 34.969958 17.258378 C 34.969805 17.258322 34.969595 17.258434 34.969442 17.258378 C 34.962578 17.255873 34.955712 17.253488 34.948771 17.251143 C 34.948616 17.251091 34.948409 17.251196 34.948254 17.251143 C 34.941312 17.248802 34.9346 17.246087 34.927584 17.243909 C 34.927426 17.24386 34.927225 17.243958 34.927067 17.243909 C 34.92005 17.241734 34.912969 17.239717 34.90588 17.237708 C 34.90572 17.237662 34.905523 17.237753 34.905363 17.237708 C 34.891023 17.233661 34.876576 17.229698 34.861955 17.226339 C 34.86179 17.226301 34.861603 17.226376 34.861438 17.226339 C 34.854209 17.224677 34.847028 17.223178 34.839734 17.221688 C 34.839571 17.221655 34.83938 17.221721 34.839217 17.221688 C 34.831918 17.220201 34.824358 17.21835 34.816996 17.217037 C 34.816829 17.217007 34.816646 17.217066 34.816479 17.217037 C 34.809119 17.215728 34.80168 17.214552 34.794259 17.21342 C 34.794089 17.213394 34.793911 17.213445 34.793742 17.21342 C 34.78632 17.212291 34.779001 17.211269 34.771521 17.210319 C 34.771349 17.210297 34.771176 17.210341 34.771004 17.210319 C 34.763688 17.209394 34.756153 17.208488 34.748783 17.207735 C 34.748443 17.207701 34.74809 17.207769 34.74775 17.207735 C 34.740379 17.20699 34.732951 17.206238 34.725529 17.205668 C 34.725193 17.205643 34.724832 17.205693 34.724495 17.205668 C 34.7169 17.205093 34.709405 17.204508 34.701758 17.204118 C 34.701584 17.204109 34.701415 17.204126 34.701241 17.204118 C 34.693593 17.203732 34.6862 17.203283 34.678503 17.203084 C 34.678332 17.20308 34.678158 17.203089 34.677987 17.203084 C 34.670285 17.20289 34.662481 17.203089 34.654732 17.203084 L 33.910592 17.203084 C 33.902492 17.203084 33.893994 17.202886 33.886304 17.203084 L 33.885787 17.203084 z " />
    <path
       id="rect13795"
       style="fill:#000000;fill-opacity:1;stroke:none;stroke-width:0.265;stop-color:#000000"
       d="m 11.120251,16.477031 c -0.449951,0 -0.88218,0.07402 -1.2851924,0.209806 -0.062181,0.02095 -0.1237326,0.04331 -0.1844849,0.06718 -0.030149,0.01185 -0.060136,0.02414 -0.089917,0.03669 -0.089647,0.03779 -0.1779313,0.079 -0.2640665,0.12299 -1.365e-4,6.9e-5 -3.804e-4,-7e-5 -5.168e-4,0 -0.086266,0.04407 -0.1702334,0.09107 -0.2526977,0.141076 -0.054976,0.03334 -0.1090805,0.068 -0.162264,0.10387 -0.02659,0.01793 -0.052939,0.03622 -0.079065,0.05478 -0.078275,0.05558 -0.1544808,0.114234 -0.2284098,0.175183 -1.031e-4,8.5e-5 -4.137e-4,-8.5e-5 -5.168e-4,0 -0.049252,0.04061 -0.097474,0.08268 -0.144694,0.125574 -9.48e-5,8.6e-5 -4.22e-4,-8.6e-5 -5.168e-4,0 -0.023558,0.02141 -0.046727,0.04315 -0.069763,0.06511 -0.023219,0.02213 -0.046051,0.0445 -0.06873,0.06718 -0.045096,0.0451 -0.089392,0.09127 -0.1322917,0.138493 -0.021489,0.02365 -0.04264,0.04766 -0.063562,0.07183 -0.041849,0.04834 -0.082437,0.09745 -0.1219564,0.147795 -0.019843,0.02527 -0.039154,0.05072 -0.058394,0.07648 -0.1532958,0.205233 -0.2873896,0.425618 -0.3994588,0.658875 -6.65e-5,1.38e-4 6.64e-5,3.78e-4 0,5.16e-4 -0.083965,0.174814 -0.1557244,0.356714 -0.2139405,0.54467 -0.019421,0.0627 -0.037353,0.12617 -0.053743,0.190169 -0.032781,0.128 -0.059418,0.258496 -0.079582,0.391191 -0.00504,0.03317 -0.00973,0.06629 -0.013953,0.09974 -0.00425,0.03361 -0.00795,0.0669 -0.011369,0.10077 -0.013607,0.134794 -0.020671,0.271811 -0.020671,0.41031 v 0.941545 1.058334 c 0,2.215997 1.7837581,4.000272 3.9997551,4.000272 h 1.999878 c 2.215998,0 4.000273,-1.784275 4.000273,-4.000272 v -1.999879 c 0,-0.03445 -6.93e-4,-0.06911 -0.0015,-0.103352 -5e-6,-1.73e-4 4e-6,-3.45e-4 0,-5.17e-4 -0.0017,-0.06882 -0.0052,-0.136747 -0.01034,-0.204639 -0.02567,-0.339454 -0.09341,-0.667102 -0.19792,-0.977201 -0.03131,-0.09288 -0.06609,-0.184237 -0.10387,-0.273885 -6.1e-5,-1.46e-4 6.1e-5,-3.71e-4 0,-5.17e-4 -0.01262,-0.02993 -0.02544,-0.05933 -0.03876,-0.08888 -0.01338,-0.02969 -0.02675,-0.05907 -0.04083,-0.08837 -0.02795,-0.05818 -0.05773,-0.115526 -0.08837,-0.172083 -7.2e-5,-1.32e-4 7.1e-5,-3.84e-4 0,-5.17e-4 -0.01536,-0.02834 -0.03101,-0.05631 -0.04703,-0.08423 -0.01609,-0.02805 -0.03235,-0.05559 -0.04909,-0.0832 -0.03326,-0.05485 -0.06808,-0.108679 -0.10387,-0.161747 -7.9e-5,-1.18e-4 7.9e-5,-4e-4 0,-5.17e-4 -0.03587,-0.05318 -0.07278,-0.105271 -0.111104,-0.15658 -0.01924,-0.02576 -0.03855,-0.05121 -0.0584,-0.07648 -0.03952,-0.05034 -0.08011,-0.09945 -0.121956,-0.147795 -0.04193,-0.04843 -0.08501,-0.09577 -0.129191,-0.14211 -0.02196,-0.02304 -0.04416,-0.0457 -0.06666,-0.06821 -0.02268,-0.02268 -0.04551,-0.04505 -0.06873,-0.06718 -0.02313,-0.02205 -0.04663,-0.04362 -0.07028,-0.06511 -0.04731,-0.04298 -0.09534,-0.08488 -0.144694,-0.125574 -1.04e-4,-8.5e-5 -4.14e-4,8.5e-5 -5.17e-4,0 -0.07393,-0.06095 -0.150135,-0.119599 -0.22841,-0.175183 -0.02613,-0.01855 -0.05247,-0.03684 -0.07906,-0.05478 -0.05318,-0.03587 -0.107288,-0.07053 -0.162264,-0.10387 -0.08246,-0.05 -0.166949,-0.09701 -0.253215,-0.141076 -0.08627,-0.04407 -0.174277,-0.08514 -0.264066,-0.12299 -0.08979,-0.03785 -0.181372,-0.07252 -0.274402,-0.10387 -0.403145,-0.135884 -0.835585,-0.209806 -1.28571,-0.209806 z"
       inkscape:export-filename=".\SkeuoShadow.png"
       inkscape:export-xdpi="96"
       inkscape:export-ydpi="96" />
    <path
       id="path16192"
       style="fill:#ffffff;fill-opacity:1;stroke:none;stroke-width:0.1;stroke-dasharray:none;stroke-opacity:1;stop-color:#000000"
       d="M 48.282841 8.6428833 A 0.43659688 0.43659688 0 0 0 48.063733 8.7012777 L 49.433675 11.074259 L 52.17356 11.074259 A 0.43659688 0.43659688 0 0 0 52.17356 11.073743 A 0.43659688 0.43659688 0 0 0 51.955485 10.695988 A 0.43659688 0.43659688 0 0 0 51.942049 10.688236 L 48.516418 8.711613 A 0.43659688 0.43659688 0 0 0 48.504533 8.7043783 L 48.500916 8.7017944 A 0.43659688 0.43659688 0 0 0 48.282841 8.6428833 z " />
    <path
       id="path16192-8"
       style="fill:#898989;fill-opacity:1;stroke:none;stroke-width:0.1;stroke-dasharray:none;stroke-opacity:1;stop-color:#000000"
       d="M 49.433158 11.074259 L 48.063216 13.447241 A 0.43659688 0.43659688 0 0 0 48.282841 13.506152 A 0.43659688 0.43659688 0 0 0 48.528821 13.429671 L 51.955485 11.453048 A 0.43659688 0.43659688 0 0 0 52.17356 11.074259 L 49.433158 11.074259 z " />
    <path
       style="fill:#898989;fill-opacity:1;stroke:none;stroke-width:0.1;stroke-dasharray:none;stroke-opacity:1;stop-color:#000000"
       d="m 41.870625,17.535282 4.393409,-2.537135 v 1.768988 h 1.537848 v 1.536305 h -1.537843 v 1.768988 z"
       id="path18607"
       inkscape:export-filename="SkeuoBack.png"
       inkscape:export-xdpi="96"
       inkscape:export-ydpi="96" />
    <path
       style="fill:#ffffff;fill-opacity:1;stroke:none;stroke-width:0.1;stroke-dasharray:none;stroke-opacity:1;stop-color:#000000"
       d="m 45.818971,17.535282 0.445063,-0.768147 h 1.537848 l -0.445063,0.768147 z"
       id="path14662" />
    <path
       style="fill:#898989;fill-opacity:1;stroke:none;stroke-width:0.1;stroke-dasharray:none;stroke-opacity:1;stop-color:#000000"
       d="m 45.818971,17.535282 h 1.537848 l 0.445063,0.768158 h -1.537843 z"
       id="path14853" />
    <path
       style="fill:#ffffff;fill-opacity:1;stroke:none;stroke-width:0.1;stroke-dasharray:none;stroke-opacity:1;stop-color:#000000"
       d="m 46.264034,14.998147 -1.46999,2.537135 h -2.923419 z"
       id="path14983" />
    <path
       style="fill:#898989;fill-opacity:1;stroke:none;stroke-width:0.1;stroke-dasharray:none;stroke-opacity:1;stop-color:#000000"
       d="m 41.870625,17.535282 h 2.923419 l 1.469995,2.537146 z"
       id="path15261" />
    <path
       id="rect19038"
       style="fill:none;fill-opacity:1;stroke:#000000;stroke-width:0.1;stop-color:#000000;stroke-opacity:1;stroke-dasharray:none"
       d="M 11.120251 5.8936971 C 10.6703 5.8936971 10.238071 5.9677197 9.8350586 6.1035034 C 9.7728779 6.1244534 9.711326 6.1468114 9.6505737 6.1706828 C 9.6204251 6.1825325 9.5904381 6.1948192 9.5606567 6.207373 C 9.4710098 6.2451647 9.3827254 6.2863755 9.2965902 6.330363 C 9.2964537 6.3304326 9.2962098 6.3302933 9.2960734 6.330363 C 9.2098075 6.3744297 9.12584 6.4214361 9.0433757 6.4714396 C 8.9883994 6.5047753 8.9342952 6.5394382 8.8811117 6.5753092 C 8.8545217 6.593243 8.828173 6.6115342 8.8020467 6.6300863 C 8.7237715 6.6856705 8.6475659 6.7443202 8.5736369 6.8052694 C 8.5735338 6.8053543 8.5732232 6.8051844 8.5731201 6.8052694 C 8.5238684 6.8458822 8.4756458 6.8879516 8.4284261 6.9308431 C 8.4283313 6.9309292 8.4280041 6.930757 8.4279093 6.9308431 C 8.4043517 6.9522495 8.3811823 6.973997 8.3581462 6.9959554 C 8.3349276 7.0180877 8.312095 7.0404521 8.2894165 7.0631348 C 8.2443201 7.1082395 8.2000243 7.1544083 8.1571248 7.2016276 C 8.1356357 7.2252808 8.1144852 7.2492894 8.0935628 7.2734578 C 8.0517143 7.3217986 8.0111259 7.3709127 7.9716064 7.4212524 C 7.9517636 7.4465235 7.9324522 7.4719741 7.9132121 7.4977336 C 7.7599163 7.7029668 7.6258225 7.9233515 7.5137533 8.1566081 C 7.5136868 8.1567464 7.5138197 8.1569865 7.5137533 8.1571248 C 7.4297883 8.3319388 7.3580289 8.5138386 7.2998128 8.7017944 C 7.2803919 8.7644965 7.2624597 8.827964 7.2460693 8.8919637 C 7.2132886 9.0199631 7.1866512 9.1504596 7.1664876 9.2831543 C 7.1614467 9.316328 7.1567615 9.3494485 7.152535 9.3828898 C 7.1482835 9.4164983 7.1445848 9.4497902 7.1411662 9.4836589 C 7.1275588 9.6184536 7.1204956 9.7554699 7.1204956 9.8939697 L 7.1204956 10.835514 L 7.1204956 11.893848 C 7.1204956 14.109845 8.9042537 15.89412 11.120251 15.89412 L 13.120129 15.89412 C 15.336127 15.89412 17.120402 14.109845 17.120402 11.893848 L 17.120402 9.8939697 C 17.120402 9.859517 17.119709 9.8248557 17.118852 9.7906169 C 17.118847 9.7904442 17.118856 9.7902727 17.118852 9.7901001 C 17.11712 9.7212824 17.11365 9.6533529 17.108516 9.5854614 C 17.082851 9.2460078 17.015109 8.9183593 16.910596 8.6082601 C 16.879289 8.5153781 16.844506 8.4240232 16.806726 8.334375 C 16.806665 8.3342294 16.806787 8.3340039 16.806726 8.3338582 C 16.794109 8.3039286 16.781287 8.2745233 16.767969 8.2449748 C 16.754589 8.2152875 16.741221 8.1859001 16.727144 8.1566081 C 16.699193 8.098431 16.669417 8.0410826 16.638778 7.9845256 C 16.638706 7.9843934 16.638849 7.9841409 16.638778 7.9840088 C 16.623419 7.9556656 16.607771 7.927697 16.591752 7.8997762 C 16.575663 7.8717305 16.559404 7.8441861 16.54266 7.8165771 C 16.509398 7.7617236 16.474575 7.7078988 16.43879 7.6548299 C 16.438711 7.6547125 16.438869 7.6544306 16.43879 7.6543132 C 16.402919 7.6011296 16.366009 7.5490419 16.327686 7.4977336 C 16.308445 7.4719741 16.289134 7.4465235 16.269291 7.4212524 C 16.229772 7.3709127 16.189183 7.3217986 16.147335 7.2734578 C 16.105409 7.2250273 16.062325 7.1776885 16.018144 7.1313477 C 15.996182 7.1083077 15.973985 7.085643 15.951481 7.0631348 C 15.928802 7.0404514 15.905971 7.0180884 15.882751 6.9959554 C 15.859624 6.9739097 15.836125 6.9523323 15.812472 6.9308431 C 15.765161 6.887861 15.717128 6.8459637 15.667778 6.8052694 C 15.667674 6.8051844 15.667364 6.8053543 15.667261 6.8052694 C 15.593332 6.7443202 15.517126 6.6856705 15.438851 6.6300863 C 15.412725 6.6115342 15.386376 6.593243 15.359786 6.5753092 C 15.306602 6.5394382 15.252498 6.5047753 15.197522 6.4714396 C 15.115058 6.4214361 15.030573 6.3744297 14.944307 6.330363 C 14.858042 6.2862962 14.77003 6.2452246 14.680241 6.207373 C 14.590456 6.1695258 14.498869 6.1348575 14.405839 6.1035034 C 14.002694 5.9676197 13.570254 5.8936971 13.120129 5.8936971 L 11.120251 5.8936971 z " />
    <path
       id="path19406"
       style="fill:#fefefe;fill-opacity:1;stroke:#000000;stroke-width:0.1;stop-color:#000000;stroke-opacity:1;stroke-dasharray:none"
       d="m 21.628653,16.887341 c -0.449951,0 -0.88218,0.07402 -1.285192,0.209806 -0.06218,0.02095 -0.123733,0.04331 -0.184485,0.06718 -0.03015,0.01185 -0.06014,0.02414 -0.08992,0.03669 -0.08965,0.03779 -0.177931,0.079 -0.264067,0.12299 -1.36e-4,6.9e-5 -3.8e-4,-7e-5 -5.16e-4,0 -0.08627,0.04407 -0.170234,0.09107 -0.252698,0.141076 -0.05498,0.03334 -0.109081,0.068 -0.162264,0.10387 -0.02659,0.01793 -0.05294,0.03622 -0.07906,0.05478 -0.07828,0.05558 -0.154481,0.114234 -0.22841,0.175183 -1.03e-4,8.5e-5 -4.14e-4,-8.5e-5 -5.17e-4,0 -0.04925,0.04061 -0.09747,0.08268 -0.144694,0.125574 -9.5e-5,8.6e-5 -4.22e-4,-8.6e-5 -5.17e-4,0 -0.02356,0.02141 -0.04673,0.04315 -0.06976,0.06511 -0.02322,0.02213 -0.04605,0.0445 -0.06873,0.06718 -0.0451,0.0451 -0.08939,0.09127 -0.132291,0.138493 -0.02149,0.02365 -0.04264,0.04766 -0.06356,0.07183 -0.04185,0.04834 -0.08244,0.09745 -0.121957,0.147795 -0.01984,0.02527 -0.03915,0.05072 -0.05839,0.07648 -0.153296,0.205233 -0.287389,0.425618 -0.399458,0.658875 -6.7e-5,1.38e-4 6.6e-5,3.78e-4 0,5.16e-4 -0.08397,0.174814 -0.155725,0.356714 -0.213941,0.54467 -0.01942,0.0627 -0.03735,0.12617 -0.05374,0.190169 -0.03278,0.128 -0.05942,0.258496 -0.07958,0.391191 -0.005,0.03317 -0.0097,0.06629 -0.01395,0.09974 -0.0042,0.03361 -0.008,0.0669 -0.01137,0.10077 -0.01361,0.134794 -0.02067,0.271811 -0.02067,0.41031 v 0.941545 1.058334 c 0,2.215997 1.783758,4.000272 3.999755,4.000272 h 1.999878 c 2.215998,0 4.000273,-1.784275 4.000273,-4.000272 v -1.999879 c 0,-0.03445 -6.93e-4,-0.06911 -0.0015,-0.103352 -5e-6,-1.73e-4 4e-6,-3.45e-4 0,-5.17e-4 -0.0017,-0.06882 -0.0052,-0.136747 -0.01034,-0.204639 -0.02567,-0.339454 -0.09341,-0.667102 -0.19792,-0.977201 -0.03131,-0.09288 -0.06609,-0.184237 -0.10387,-0.273885 -6.1e-5,-1.46e-4 6.1e-5,-3.71e-4 0,-5.17e-4 -0.01262,-0.02993 -0.02544,-0.05933 -0.03876,-0.08888 -0.01338,-0.02969 -0.02675,-0.05907 -0.04083,-0.08837 -0.02795,-0.05818 -0.05773,-0.115526 -0.08837,-0.172083 -7.2e-5,-1.32e-4 7.1e-5,-3.84e-4 0,-5.17e-4 -0.01536,-0.02834 -0.03101,-0.05631 -0.04703,-0.08423 -0.01609,-0.02805 -0.03235,-0.05559 -0.04909,-0.0832 -0.03326,-0.05485 -0.06808,-0.108679 -0.10387,-0.161747 -7.9e-5,-1.18e-4 7.9e-5,-4e-4 0,-5.17e-4 -0.03587,-0.05318 -0.07278,-0.105271 -0.111104,-0.15658 -0.01924,-0.02576 -0.03855,-0.05121 -0.0584,-0.07648 -0.03952,-0.05034 -0.08011,-0.09945 -0.121956,-0.147795 -0.04193,-0.04843 -0.08501,-0.09577 -0.129191,-0.14211 -0.02196,-0.02304 -0.04416,-0.0457 -0.06666,-0.06821 -0.02268,-0.02268 -0.04551,-0.04505 -0.06873,-0.06718 -0.02313,-0.02205 -0.04663,-0.04362 -0.07028,-0.06511 -0.04731,-0.04298 -0.09534,-0.08488 -0.144694,-0.125574 -1.04e-4,-8.5e-5 -4.14e-4,8.5e-5 -5.17e-4,0 -0.07393,-0.06095 -0.150135,-0.119599 -0.22841,-0.175183 -0.02613,-0.01855 -0.05247,-0.03684 -0.07906,-0.05478 -0.05318,-0.03587 -0.107288,-0.07053 -0.162264,-0.10387 -0.08246,-0.05 -0.166949,-0.09701 -0.253215,-0.141076 -0.08627,-0.04407 -0.174277,-0.08514 -0.264066,-0.12299 -0.08979,-0.03785 -0.181372,-0.07252 -0.274402,-0.10387 -0.403145,-0.135884 -0.835585,-0.209806 -1.28571,-0.209806 z"
       inkscape:export-filename=".\SkeuoScrollPlate.png"
       inkscape:export-xdpi="96"
       inkscape:export-ydpi="96" />
    <rect
       style="fill:#5c5c5c;fill-opacity:1;stroke:none;stroke-width:0.265;stop-color:#000000"
       id="rect19408"
       width="10"
       height="9.636198"
       x="-3.3666914"
       y="6.0690632"
       rx="4"
       ry="4"
       inkscape:export-filename="SkeuoPlateLow.png"
       inkscape:export-xdpi="96"
       inkscape:export-ydpi="96" />
    <path
       id="path19410"
       style="fill:#e5e5e5;fill-opacity:1;stroke:none;stroke-width:0.265;stop-color:#000000"
       d="m 0.63347163,6.13301 c -2.21599783,0 -3.99975603,1.783758 -3.99975603,3.999755 v 0.941546 c 0,2.215998 1.7837582,3.999756 3.99975603,3.999756 H 2.6333496 c 2.215998,0 3.999756,-1.783758 3.999756,-3.999756 v -0.941546 c 0,-2.215997 -1.783758,-3.999755 -3.999756,-3.999755 z"
       sodipodi:nodetypes="sssssssss" />
    <path
       id="path19412"
       style="fill:none;fill-opacity:1;stroke:#000000;stroke-width:0.1;stroke-dasharray:none;stroke-opacity:1;stop-color:#000000"
       d="m 0.63321563,6.13301 c -0.44995098,0 -0.88217998,0.074023 -1.28519238,0.2098063 -0.0621807,0.02095 -0.1237326,0.043308 -0.1844849,0.067179 -0.0301486,0.01185 -0.0601356,0.024136 -0.089917,0.03669 -0.0896469,0.037792 -0.17793125,0.079003 -0.26406645,0.12299 -1.365e-4,6.96e-5 -3.804e-4,-6.97e-5 -5.168e-4,0 -0.086266,0.044067 -0.1702334,0.091073 -0.2526977,0.1410766 -0.054976,0.033336 -0.1090806,0.067999 -0.1622641,0.1038696 -0.02659,0.017934 -0.052939,0.036225 -0.079065,0.054777 -0.078275,0.055584 -0.1544808,0.1142339 -0.2284098,0.1751831 -1.031e-4,8.49e-5 -4.137e-4,-8.5e-5 -5.168e-4,0 -0.049252,0.040613 -0.097474,0.082682 -0.144694,0.1255737 -9.48e-5,8.61e-5 -4.22e-4,-8.61e-5 -5.168e-4,0 -0.023558,0.021406 -0.046727,0.043154 -0.069763,0.065112 -0.023219,0.022132 -0.046051,0.044497 -0.06873,0.067179 -0.045096,0.045105 -0.089392,0.091273 -0.1322917,0.1384928 -0.021489,0.023653 -0.04264,0.047662 -0.063562,0.07183 -0.041848,0.048341 -0.082437,0.097455 -0.1219564,0.1477946 -0.019843,0.025271 -0.039154,0.050722 -0.058394,0.076481 -0.1532958,0.2052332 -0.2873896,0.4256179 -0.3994588,0.6588745 -6.65e-5,1.383e-4 6.64e-5,3.784e-4 0,5.167e-4 -0.083965,0.174814 -0.1557244,0.3567138 -0.2139405,0.5446696 -0.019421,0.062702 -0.037353,0.1261696 -0.053743,0.1901693 -0.032781,0.1279994 -0.059418,0.2584959 -0.079582,0.3911906 -0.00504,0.033174 -0.00973,0.066295 -0.013953,0.099736 -0.00425,0.03361 -0.00795,0.0669 -0.011369,0.100769 -0.013607,0.134795 -0.020671,0.271811 -0.020671,0.4103106 l 0,0.513617 v 1.058334 c 0,2.215997 1.7837581,4.000272 3.99975543,4.000272 H 2.6330929 c 2.215998,0 4.000273,-1.784275 4.000273,-4.000272 l 0,-1.571951 c 0,-0.03445 -6.93e-4,-0.06911 -0.00155,-0.103353 -5e-6,-1.73e-4 4e-6,-3.44e-4 0,-5.17e-4 -0.00173,-0.06882 -0.0052,-0.1367466 -0.010336,-0.2046376 -0.025665,-0.3394541 -0.093407,-0.6671026 -0.19792,-0.9772018 -0.031307,-0.092882 -0.06609,-0.1842369 -0.10387,-0.2738851 -6.1e-5,-1.456e-4 6.1e-5,-3.711e-4 0,-5.168e-4 -0.012617,-0.02993 -0.025439,-0.059335 -0.038757,-0.088883 -0.01338,-0.029687 -0.026748,-0.059075 -0.040825,-0.088367 -0.027951,-0.058177 -0.057727,-0.1155255 -0.088366,-0.1720825 -7.2e-5,-1.322e-4 7.1e-5,-3.847e-4 0,-5.168e-4 -0.015359,-0.028343 -0.031007,-0.056312 -0.047026,-0.084233 -0.016089,-0.028046 -0.032348,-0.05559 -0.049092,-0.083199 -0.033262,-0.054854 -0.068085,-0.1086783 -0.10387,-0.1617472 -7.9e-5,-1.174e-4 7.9e-5,-3.993e-4 0,-5.167e-4 -0.035871,-0.053184 -0.072781,-0.1052713 -0.111104,-0.1565796 -0.019241,-0.025759 -0.038552,-0.05121 -0.058395,-0.076481 -0.039519,-0.05034 -0.080108,-0.099454 -0.121956,-0.1477946 -0.041926,-0.048431 -0.08501,-0.095769 -0.129191,-0.1421101 -0.021962,-0.02304 -0.044159,-0.045705 -0.066663,-0.068213 -0.022679,-0.022683 -0.04551,-0.045046 -0.06873,-0.067179 -0.023127,-0.022046 -0.046626,-0.043623 -0.070279,-0.065112 -0.047311,-0.042982 -0.095344,-0.084879 -0.144694,-0.1255737 -1.04e-4,-8.5e-5 -4.14e-4,8.49e-5 -5.17e-4,0 C 5.1062966,6.9836331 5.0300906,6.9249834 4.9518156,6.8693992 4.9256896,6.8508471 4.8993406,6.8325559 4.8727506,6.8146221 4.8195666,6.7787511 4.7654626,6.7440882 4.7104866,6.7107525 4.6280226,6.660749 4.5435376,6.6137426 4.4572716,6.5696759 4.3710066,6.5256091 4.2829946,6.4845375 4.1932056,6.4466859 4.1034206,6.4088387 4.0118336,6.3741704 3.9188036,6.3428163 3.5156586,6.2069326 3.0832186,6.13301 2.6330936,6.13301 Z"
       sodipodi:nodetypes="ssccscsssscscscssccscssscsscsssssscccscscscscscscscsssscssssccss" />
    <path
       id="path19441"
       style="fill:none;fill-opacity:1;stroke:none;stroke-width:0.1;stroke-dasharray:none;stroke-opacity:1;stop-color:#000000"
       d="m 0.63321563,5.7050828 c -0.44995098,0 -0.88217999,0.074023 -1.28519236,0.2098063 -0.062181,0.02095 -0.1237326,0.043308 -0.1844849,0.067179 -0.030149,0.01185 -0.060136,0.024136 -0.089917,0.03669 -0.089647,0.037792 -0.17793127,0.079003 -0.26406647,0.12299 -1.365e-4,6.96e-5 -3.804e-4,-6.97e-5 -5.168e-4,0 -0.086266,0.044067 -0.1702334,0.091073 -0.2526977,0.1410766 -0.054976,0.033336 -0.1090806,0.067999 -0.1622641,0.1038696 -0.02659,0.017934 -0.052939,0.036225 -0.079065,0.054777 -0.078275,0.055584 -0.1544808,0.1142339 -0.2284098,0.1751831 -1.031e-4,8.49e-5 -4.137e-4,-8.5e-5 -5.168e-4,0 -0.049252,0.040613 -0.097474,0.082682 -0.144694,0.1255737 -9.48e-5,8.61e-5 -4.22e-4,-8.61e-5 -5.168e-4,0 -0.023558,0.021406 -0.046727,0.043154 -0.069763,0.065112 -0.023219,0.022132 -0.046051,0.044497 -0.06873,0.067179 -0.045096,0.045105 -0.089392,0.091273 -0.1322917,0.1384928 -0.021489,0.023653 -0.04264,0.047662 -0.063562,0.07183 -0.041848,0.048341 -0.082437,0.097455 -0.1219564,0.1477946 -0.019843,0.025271 -0.039154,0.050722 -0.058394,0.076481 -0.1532958,0.2052332 -0.2873896,0.4256179 -0.3994588,0.6588745 -6.65e-5,1.383e-4 6.64e-5,3.784e-4 0,5.167e-4 -0.083965,0.174814 -0.1557244,0.3567138 -0.2139405,0.5446696 -0.019421,0.062702 -0.037353,0.1261696 -0.053743,0.1901693 -0.032781,0.1279994 -0.059418,0.2584959 -0.079582,0.3911906 -0.00504,0.033174 -0.00973,0.066295 -0.013953,0.099736 -0.00425,0.03361 -0.00795,0.0669 -0.011369,0.100769 -0.013607,0.134795 -0.020671,0.271811 -0.020671,0.410311 v 0.9415438 1.058334 c 0,2.215997 1.7837581,4.000272 3.99975543,4.000272 H 2.6330929 c 2.215998,0 4.000273,-1.784275 4.000273,-4.000272 V 9.7053542 c 0,-0.03445 -6.93e-4,-0.06911 -0.00155,-0.103353 -5e-6,-1.73e-4 4e-6,-3.44e-4 0,-5.17e-4 -0.00173,-0.06882 -0.0052,-0.136747 -0.010336,-0.204638 -0.025665,-0.3394541 -0.093407,-0.6671026 -0.19792,-0.9772018 -0.031307,-0.092882 -0.06609,-0.1842369 -0.10387,-0.2738851 -6.1e-5,-1.456e-4 6.1e-5,-3.711e-4 0,-5.168e-4 -0.012617,-0.02993 -0.025439,-0.059335 -0.038757,-0.088883 -0.01338,-0.029687 -0.026748,-0.059075 -0.040825,-0.088367 C 6.2121569,7.9098155 6.1823809,7.852467 6.1517419,7.79591 c -7.2e-5,-1.322e-4 7.1e-5,-3.847e-4 0,-5.168e-4 -0.015359,-0.028343 -0.031007,-0.056312 -0.047026,-0.084233 -0.016089,-0.028046 -0.032348,-0.05559 -0.049092,-0.083199 -0.033262,-0.054854 -0.068085,-0.1086783 -0.10387,-0.1617472 -7.9e-5,-1.174e-4 7.9e-5,-3.993e-4 0,-5.167e-4 C 5.9158829,7.4125133 5.8789729,7.360426 5.8406499,7.3091177 5.8214089,7.2833587 5.8020979,7.2579077 5.7822549,7.2326367 5.7427359,7.1822967 5.7021469,7.1331827 5.6602989,7.0848421 5.6183729,7.0364111 5.5752889,6.9890731 5.5311079,6.942732 5.5091459,6.919692 5.4869489,6.897027 5.4644449,6.874519 5.4417659,6.851836 5.4189349,6.829473 5.3957149,6.80734 5.3725879,6.785294 5.3490889,6.763717 5.3254359,6.742228 5.2781249,6.699246 5.2300919,6.657349 5.1807419,6.6166543 c -1.04e-4,-8.5e-5 -4.14e-4,8.49e-5 -5.17e-4,0 C 5.1062966,6.5557059 5.0300906,6.4970562 4.9518156,6.441472 4.9256896,6.4229199 4.8993406,6.4046287 4.8727506,6.3866949 4.8195666,6.3508239 4.7654626,6.316161 4.7104866,6.2828253 4.6280226,6.2328218 4.5435376,6.1858154 4.4572716,6.1417487 4.3710066,6.0976819 4.2829946,6.0566103 4.1932056,6.0187587 4.1034206,5.9809115 4.0118336,5.9462432 3.9188036,5.9148891 3.5156586,5.7790054 3.0832186,5.7050828 2.6330936,5.7050828 Z" />
  </g>
</svg>
